<?xml version="1.0" encoding="UTF-8"?>
<svg id="Layer_2" data-name="Layer 2" xmlns="http://www.w3.org/2000/svg" viewBox="0 0 70.86 66.45">
  <defs>
    <style>
      .cls-1 {
        fill-rule: evenodd;
      }
    </style>
  </defs>
  <g id="svg8">
    <g id="layer2">
      <g id="knob3">
        <path id="path5910" class="cls-1" d="M34.77,0v9.69c-.56.01-1.12.05-1.68.1l-.45-4.24-.7.08.45,4.24c-.66.08-1.32.18-1.97.31l-.89-4.17-.69.15.89,4.17c-.65.15-1.29.31-1.92.51l-1.31-4.04-.68.22,1.32,4.05c-.63.21-1.25.45-1.86.71l-1.73-3.89-.65.29,1.73,3.89c-.51.23-1.01.48-1.5.75l-4.84-8.38-1.15.67,4.84,8.38c-.48.3-.95.61-1.41.94l-2.51-3.45-.58.42,2.51,3.45c-.53.4-1.04.82-1.54,1.26l-2.85-3.17-.53.47,2.85,3.17c-.49.45-.95.92-1.4,1.4l-3.17-2.85-.48.53,3.17,2.86c-.44.5-.86,1.01-1.25,1.54l-3.45-2.5-.42.57,3.46,2.51c-.32.45-.63.92-.92,1.39l-8.39-4.84-.66,1.15,8.38,4.84c-.27.49-.52,1-.75,1.51l-3.88-1.73-.29.64,3.88,1.73c-.26.61-.49,1.23-.71,1.86l-4.05-1.31-.22.68,4.04,1.31c-.2.63-.36,1.27-.51,1.92l-4.16-.89-.15.69,4.16.88c-.13.65-.23,1.3-.31,1.96l-4.23-.45-.07.71,4.23.44c-.05.55-.08,1.11-.09,1.68H0v1.32h9.7c.01.56.05,1.12.1,1.67l-4.24.45.07.71,4.24-.45c.08.66.18,1.32.3,1.96l-4.16.88.15.69,4.17-.89c.15.65.32,1.29.51,1.92l-4.06,1.32.22.68,4.04-1.31c.21.63.46,1.24.72,1.85l-3.89,1.73.29.65,3.9-1.73c.24.51.49,1.01.75,1.5l-8.39,4.85.67,1.15,8.39-4.84c.29.48.6.95.93,1.41l-3.46,2.51.42.58,3.45-2.5c.4.53.82,1.04,1.26,1.54l-3.17,2.86.48.53,3.18-2.86c.45.49.92.96,1.4,1.41l-2.86,3.17.53.48,2.86-3.18c.5.44,1.01.85,1.54,1.25l-2.51,3.46.58.42,2.51-3.45c.45.32.92.63,1.39.92l-4.84,8.38,1.15.66,5.55-9.6-1.15-.67h0c-3.36-2.07-6.18-4.94-8.19-8.34l-.36-.63c-.69-1.24-1.28-2.55-1.74-3.91h0s-.08-.25-.08-.25c-.28-.87-.52-1.75-.71-2.66l-.05-.24c-.29-1.5-.45-3.04-.45-4.62v-.2c0-.75.04-1.5.11-2.23l.05-.43c.07-.65.17-1.3.3-1.94h0l.13-.62c.14-.63.3-1.25.49-1.86h0s.22-.67.22-.67h0c.2-.58.41-1.16.65-1.72h0s.29-.65.29-.65h0c.22-.47.44-.93.68-1.38h0s.66-1.14.66-1.14h0c1.2-1.94,2.66-3.71,4.33-5.24l.12-.11c1.1-.99,2.29-1.88,3.55-2.66l1.15-.66h0c1.35-.73,2.77-1.34,4.25-1.8l.12-.04c.71-.22,1.43-.4,2.16-.56l.21-.04c.77-.16,1.56-.28,2.36-.36.82-.08,1.65-.13,2.49-.13.79,0,1.58.04,2.35.12l.29.03c.7.08,1.39.18,2.07.31l.69.15c.6.14,1.2.29,1.78.47h0s.68.23.68.23c.58.2,1.16.41,1.72.65h0s.65.29.65.29c.47.22.93.44,1.38.68h0s1.12.65,1.12.65c2.64,1.62,4.94,3.72,6.79,6.19l.02.03c.43.58.84,1.18,1.22,1.8l.67,1.15h0c.3.55.57,1.12.83,1.69l.14.32h0c.28.66.54,1.34.76,2.03l.12.36c.21.69.39,1.39.54,2.11l.06.31c.3,1.51.46,3.06.47,4.65v.2c0,1.58-.16,3.13-.46,4.62h0l-.08.4c-.17.81-.38,1.59-.63,2.37l-.12.38h0c-.48,1.4-1.08,2.74-1.79,4l-.28.49c-2.03,3.44-4.88,6.35-8.29,8.43l-1.09.62,5.55,9.61,1.15-.66-4.84-8.39c.48-.3.95-.61,1.41-.93l2.5,3.45.58-.41-2.51-3.46c.53-.4,1.05-.81,1.54-1.25l2.86,3.18.53-.48-2.86-3.17c.49-.45.95-.92,1.4-1.41l3.18,2.86.48-.53-3.18-2.86c.44-.5.86-1.01,1.25-1.54l3.45,2.51.41-.58-3.46-2.51c.32-.45.63-.92.92-1.39l8.4,4.85.66-1.15-8.39-4.85c.27-.49.52-.99.75-1.5l3.89,1.73.29-.65-3.89-1.73c.26-.61.51-1.22.72-1.85l4.04,1.31.22-.68-4.05-1.32c.2-.63.37-1.27.51-1.92l4.17.89.15-.7-4.16-.88c.13-.65.23-1.3.3-1.96l4.24.45.07-.7-4.24-.45c.05-.55.08-1.11.1-1.67h9.7v-1.32h-9.69c-.01-.56-.05-1.13-.1-1.68l4.24-.45-.07-.7-4.24.45c-.08-.66-.18-1.32-.3-1.96l4.17-.88-.15-.69-4.16.89c-.15-.65-.31-1.29-.51-1.92l4.05-1.32-.22-.68-4.05,1.32c-.21-.63-.45-1.25-.71-1.86l3.89-1.73-.29-.65-3.89,1.74c-.24-.51-.48-1.01-.75-1.5l8.39-4.84-.66-1.15-8.39,4.84c-.3-.48-.61-.95-.93-1.41l3.45-2.51-.42-.57-3.45,2.51c-.4-.53-.82-1.04-1.26-1.54l3.17-2.86-.48-.53-3.17,2.85c-.45-.49-.92-.95-1.41-1.4l2.86-3.17-.53-.47-2.85,3.17c-.5-.44-1.01-.86-1.54-1.26l2.51-3.45-.58-.42-2.51,3.45c-.45-.32-.91-.63-1.38-.92l4.84-8.39-1.15-.66-4.84,8.38c-.49-.27-1-.52-1.51-.75l1.73-3.89-.65-.29-1.73,3.88c-.61-.26-1.23-.49-1.86-.71l1.31-4.05-.67-.22-1.32,4.04c-.63-.2-1.27-.36-1.92-.51l.88-4.16-.69-.15-.88,4.16c-.65-.13-1.3-.23-1.96-.3l.44-4.23-.7-.08-.44,4.24c-.55-.05-1.11-.08-1.68-.09V0h-1.33Z"/>
        <path id="path5953" d="M35.43,28.35c-3.91,0-7.09,3.18-7.09,7.09s3.18,7.09,7.09,7.09,7.09-3.18,7.09-7.09-3.18-7.09-7.09-7.09ZM35.43,29.23c3.43,0,6.2,2.77,6.2,6.2s-2.77,6.2-6.2,6.2c-3.43,0-6.2-2.77-6.2-6.2s2.77-6.2,6.2-6.2ZM34.99,31v3.99h-3.99v.89h3.99v3.99h.89v-3.99h3.99v-.89h-3.99v-3.99h-.89Z"/>
      </g>
    </g>
  </g>
</svg>