<?xml version="1.0" encoding="UTF-8"?>
<svg id="Layer_2" data-name="Layer 2" xmlns="http://www.w3.org/2000/svg" viewBox="0 0 70.98 66.53">
  <g id="svg8">
    <g id="layer2">
      <g id="knob6">
        <path id="path3471" d="M35.49,0c-1.13,0-2.25.06-3.36.16v-.02s-.7.08-.7.08v.02c-1,.11-1.99.27-2.97.46h0s-.7.13-.7.13v.02c-.98.22-1.95.47-2.9.77h0s-.68.21-.68.21v.02c-.95.32-1.89.68-2.8,1.07h0s-.65.28-.65.28h0c-2.05.95-3.99,2.08-5.81,3.38v-.02s-.59.42-.59.42h0c-.8.61-1.58,1.24-2.33,1.91l-.02-.02-.53.48h.01c-.74.69-1.45,1.4-2.13,2.14h-.01s-.48.51-.48.51l.02.02c-.66.75-1.3,1.53-1.9,2.33h-.01s-.42.56-.42.56h.02c-1.29,1.83-2.42,3.77-3.36,5.82h0s-.29.64-.29.64h0c-.4.92-.75,1.85-1.08,2.81h0s-.1.32-.1.32c-.35,1.07-.64,2.15-.89,3.26h0s-.07.31-.07.31c-.03.13-.06.25-.08.38h0c-.2.98-.35,1.97-.46,2.98h0s-.04.34-.04.34c0,.06-.01.12-.02.18l-.02.18h0c-.1,1.11-.16,2.23-.16,3.36s.06,2.25.16,3.35h0s.07.7.07.7h.01c.11,1,.27,2,.46,2.97h0l.15.69h0c.22.98.48,1.95.77,2.9h0s.22.68.22.68c.32.95.69,1.88,1.09,2.8h-.01s.29.65.29.65h.02c.94,2.04,2.07,3.99,3.37,5.81h-.02s.41.58.41.58h.01c.6.79,1.23,1.57,1.89,2.32h-.01s.47.54.47.54l.02-.02c.68.74,1.38,1.45,2.12,2.13l-.02.02.53.48.02-.02c.75.66,1.54,1.29,2.34,1.89l-.02.02.57.42v-.02c.74.52,1.48,1.02,2.25,1.48h0s1.15.67,1.15.67l5.54-9.61-1.15-.66-4.84,8.38c-.72-.44-1.42-.91-2.11-1.4l2.49-3.43-.58-.42-2.49,3.43c-.77-.57-1.51-1.16-2.23-1.79l2.84-3.15-.53-.48-2.84,3.15c-.7-.65-1.37-1.32-2.01-2.03l3.14-2.83-.47-.53-3.15,2.84c-.63-.71-1.23-1.45-1.8-2.22l3.43-2.49-.42-.57-3.42,2.49c-.49-.69-.96-1.4-1.4-2.13l8.42-4.86-.66-1.15-8.42,4.86c-.41-.74-.79-1.51-1.15-2.28l3.87-1.72-.29-.65-3.87,1.72c-.38-.87-.72-1.76-1.03-2.66l4.03-1.31-.22-.68-4.03,1.31c-.28-.9-.53-1.82-.74-2.76l4.14-.88-.14-.69-4.15.88c-.19-.93-.33-1.87-.44-2.83l4.21-.44-.07-.7-4.21.44c-.08-.84-.13-1.69-.14-2.54h9.72v-1.33H1.44c.02-.86.06-1.71.14-2.55l4.22.44.07-.7-4.21-.44c.11-.95.25-1.9.44-2.83l4.16.88.15-.69-4.15-.88c.21-.93.45-1.86.73-2.76l4.05,1.31.22-.68-4.04-1.31c.3-.91.64-1.8,1.02-2.67l3.88,1.73.29-.65-3.88-1.72c.36-.78.73-1.54,1.15-2.28l8.43,4.87.67-1.15-8.43-4.87c.44-.73.91-1.43,1.4-2.12l3.43,2.49.42-.58-3.43-2.49c.57-.77,1.17-1.5,1.8-2.21l3.15,2.83.48-.53-3.15-2.84c.65-.7,1.32-1.38,2.02-2.02l2.84,3.15.53-.48-2.83-3.15c.71-.63,1.45-1.23,2.21-1.8l2.5,3.43.58-.41-2.49-3.43c.69-.49,1.4-.97,2.13-1.41l4.87,8.44,1.15-.67-4.87-8.43c.74-.41,1.5-.79,2.27-1.14l1.73,3.87.65-.29-1.73-3.88c.87-.38,1.76-.71,2.67-1.02l1.31,4.03.67-.22-1.31-4.04c.9-.28,1.83-.52,2.76-.73l.88,4.15.7-.15-.88-4.15c.93-.19,1.87-.33,2.82-.44l.44,4.21.7-.07-.44-4.22c.84-.08,1.7-.12,2.56-.14v9.72h1.32V1.43c.85.02,1.7.06,2.54.14l-.44,4.22.7.07.44-4.22c.95.11,1.9.25,2.83.44l-.88,4.16.69.15.88-4.15c.94.21,1.86.45,2.77.73l-1.32,4.05.68.22,1.31-4.04c.91.3,1.8.64,2.67,1.02l-1.73,3.88.65.29,1.73-3.88c.78.36,1.54.74,2.29,1.15l-4.86,8.43,1.15.66,4.87-8.43c.72.44,1.42.91,2.11,1.4l-2.49,3.43.57.42,2.49-3.43c.77.57,1.5,1.17,2.22,1.8l-2.83,3.15.53.47,2.84-3.15c.7.64,1.38,1.32,2.02,2.02l-3.15,2.84.48.53,3.15-2.84c.63.71,1.24,1.45,1.8,2.22l-3.44,2.5.41.57,3.43-2.49c.5.7.97,1.41,1.42,2.14l-8.43,4.87.66,1.15,8.43-4.86c.41.74.79,1.5,1.14,2.27l-3.87,1.72.29.65,3.88-1.73c.38.87.71,1.76,1.02,2.67l-4.03,1.31.22.68,4.04-1.31c.28.9.52,1.83.73,2.76l-4.15.88.15.69,4.15-.88c.19.93.33,1.87.44,2.83l-4.21.44.08.7,4.21-.44c.08.84.12,1.69.14,2.55h-9.7v1.33h9.71c-.02.85-.06,1.7-.14,2.54l-4.22-.44-.08.7,4.22.44c-.11.95-.25,1.9-.44,2.82l-4.16-.88-.15.69,4.15.88c-.21.93-.45,1.85-.74,2.76l-4.03-1.31-.22.68,4.05,1.31c-.3.91-.65,1.79-1.03,2.67l-3.88-1.73-.29.65,3.87,1.73c-.36.78-.74,1.54-1.15,2.28l-8.41-4.86-.67,1.15,8.41,4.85c-.44.73-.9,1.43-1.39,2.12l-3.42-2.49-.41.58,3.43,2.49c-.57.77-1.17,1.5-1.8,2.22l-3.15-2.84-.47.53,3.14,2.83c-.64.7-1.31,1.38-2.01,2.02l-2.83-3.15-.53.47,2.84,3.15c-.71.63-1.46,1.23-2.23,1.8l-2.49-3.43-.58.42,2.5,3.43c-.69.49-1.39.97-2.12,1.41l-4.84-8.39-1.15.66,5.55,9.61,1.14-.65h0s0,0,.01,0c.77-.47,1.51-.97,2.24-1.49h0s.57-.4.57-.4v-.02c.79-.6,1.58-1.23,2.33-1.89h.01s.53-.46.53-.46v-.02c.72-.68,1.42-1.39,2.1-2.13l.02.02.47-.53h-.01c.66-.77,1.29-1.54,1.89-2.35h.02s.41-.56.41-.56h-.02c1.29-1.83,2.42-3.77,3.36-5.82h.01s.29-.64.29-.64h0c1.36-3.14,2.29-6.52,2.7-10.05h0l.03-.31c.01-.1.02-.2.03-.3v-.09s0,0,0,0c.1-1.11.16-2.22.16-3.36s-.06-2.25-.16-3.36h.01s-.07-.7-.07-.7h-.01c-.11-1-.27-1.99-.46-2.97h0s-.15-.69-.15-.69h-.01c-.22-.98-.47-1.95-.77-2.9h0s-.22-.67-.22-.67h0c-.32-.95-.68-1.89-1.08-2.81h0s-.29-.65-.29-.65h-.01c-.94-2.05-2.07-3.99-3.37-5.81h.02s-.42-.58-.42-.58h0c-.6-.8-1.24-1.57-1.9-2.32h.01s-.48-.55-.48-.55h-.01c-.68-.72-1.39-1.43-2.13-2.11h.01s-.53-.48-.53-.48v.02c-.77-.66-1.54-1.3-2.34-1.9h0s-.58-.43-.58-.43v.02c-1.83-1.29-3.77-2.42-5.82-3.36h0s-.65-.3-.65-.3h0c-.92-.39-1.85-.75-2.81-1.07h0s-.67-.23-.67-.23c-.95-.3-1.92-.55-2.91-.77h0s-.48-.11-.48-.11c-.06-.01-.12-.03-.18-.04h-.04s0,0,0,0c-.98-.2-1.97-.35-2.97-.46h0s-.7-.09-.7-.09h0c-1.1-.09-2.22-.15-3.35-.15h0Z"/>
        <path id="path5947" d="M35.49,28.35c-3.91,0-7.09,3.18-7.09,7.09s3.18,7.09,7.09,7.09,7.09-3.18,7.09-7.09-3.18-7.09-7.09-7.09ZM35.49,29.23c3.43,0,6.2,2.77,6.2,6.2s-2.77,6.2-6.2,6.2c-3.43,0-6.2-2.77-6.2-6.2s2.77-6.2,6.2-6.2ZM35.05,31v3.99h-3.99v.89h3.99v3.99h.89v-3.99h3.99v-.89h-3.99v-3.99h-.89Z"/>
      </g>
    </g>
  </g>
</svg>